<svg version="1.1" id="Layer_1" xmlns="http://www.w3.org/2000/svg" xmlns:xlink="http://www.w3.org/1999/xlink" x="0px" y="0px"
	 width="100%" viewBox="0 0 534 138" enable-background="new 0 0 534 138" xml:space="preserve">
<path fill="#565656" opacity="1.000000" stroke="none" 
	d="
M359.000000,139.000000 
	C239.333328,139.000000 120.166664,139.000000 1.000000,139.000000 
	C1.000000,93.000000 1.000000,47.000000 1.000000,1.000000 
	C179.000000,1.000000 357.000000,1.000000 535.000000,1.000000 
	C535.000000,47.000000 535.000000,93.000000 535.000000,139.000000 
	C476.500000,139.000000 418.000000,139.000000 359.000000,139.000000 
M392.281525,112.929977 
	C391.203156,112.926086 390.124786,112.922195 389.016937,112.045502 
	C389.012482,110.414291 389.296509,108.707787 388.897614,107.179543 
	C388.650238,106.231682 387.366547,105.554298 386.884460,105.083824 
	C387.281128,108.283112 387.757202,110.889969 387.788696,113.502174 
	C387.794434,113.978035 385.984894,114.475769 384.745422,114.340828 
	C383.147034,113.104401 381.093842,110.528519 380.037079,110.887314 
	C377.084229,111.889923 374.543701,114.107002 372.016754,115.731361 
	C370.338867,110.660385 368.223877,109.577362 362.386139,111.678108 
	C358.793457,109.205574 357.953888,111.495827 357.721191,115.013092 
	C354.847534,111.875824 352.333771,108.672836 347.347809,111.343315 
	C346.929840,109.157524 346.511841,106.971725 346.093872,104.785927 
	C345.528992,104.796219 344.964081,104.806511 344.399170,104.816803 
	C344.146637,107.198624 343.894104,109.580437 342.988892,111.991760 
	C342.556732,112.045708 342.124603,112.099663 341.103943,111.860878 
	C337.286896,109.308304 334.461060,110.699409 331.526215,113.896095 
	C330.919617,113.654007 330.312988,113.411919 329.198151,112.749367 
	C322.496735,108.309586 318.552124,110.816978 317.752533,120.987007 
	C315.762329,120.047562 312.746735,119.429543 312.588501,118.380516 
	C312.266144,116.243347 313.484344,113.873810 314.070312,111.590302 
	C313.092865,109.571014 311.934509,107.177986 310.650696,104.525780 
	C309.165558,107.354774 307.898315,109.768684 306.901764,111.666992 
	C307.721039,114.002014 308.338867,116.182236 309.251953,118.230858 
	C309.963898,119.828186 310.987244,122.516312 311.968079,122.559868 
	C317.370667,122.799774 322.804596,122.410530 328.221558,122.121223 
	C328.718384,122.094688 329.171539,121.251160 330.281921,120.632927 
	C330.892120,120.393761 331.502350,120.154594 332.529419,120.447151 
	C334.915680,123.794662 337.751892,124.676758 341.839996,122.055527 
	C342.449005,122.050133 343.057983,122.044739 343.999390,122.607620 
	C347.167816,124.518379 346.445923,121.889832 346.921356,120.267952 
	C347.616119,117.897781 348.661804,115.630455 350.235321,113.436745 
	C356.753998,114.178558 352.652496,120.428154 355.099213,123.162262 
	C357.224976,123.162262 359.155914,123.162262 361.579742,123.162262 
	C361.674530,121.258308 361.450378,119.403107 361.938599,117.759483 
	C362.417542,116.146980 363.620819,114.749626 365.171051,113.449471 
	C371.502350,114.068192 368.378326,120.285049 370.911255,123.962578 
	C371.901886,122.061356 372.555695,120.806587 373.275665,119.424843 
	C377.871033,125.001114 379.475159,124.914139 386.752991,119.015770 
	C387.400543,120.208359 388.048065,121.400940 388.654449,122.517769 
	C390.292114,119.276886 392.110992,120.484070 394.390930,122.887596 
	C399.343567,124.793823 401.888336,121.110100 404.868713,119.067749 
	C406.953247,123.714142 410.904266,123.851669 415.442657,122.790031 
	C413.761078,130.900497 408.889435,126.203720 404.953888,125.506516 
	C405.726562,129.663269 408.575592,131.069901 411.168518,130.406586 
	C413.676178,129.765076 417.215118,127.581642 417.644958,125.521355 
	C418.616638,120.863853 417.950409,115.864632 417.950409,110.882637 
	C412.978973,111.815109 406.918457,108.275276 404.175507,115.731071 
	C400.079681,109.836952 398.917389,109.466881 392.989105,112.243118 
	C392.989105,112.243118 392.967468,112.481346 392.281525,112.929977 
M439.856354,122.165794 
	C442.422699,122.503899 445.026489,123.241554 447.539032,123.005936 
	C448.735321,122.893753 449.973297,121.047241 450.702606,119.717690 
	C450.877625,119.398605 449.226624,117.808212 448.191559,117.159782 
	C446.728973,116.243515 445.058197,115.659523 442.235077,114.363739 
	C445.718506,114.363739 447.779205,114.363739 450.065491,114.363739 
	C447.100525,109.236710 442.436462,109.214096 438.045166,113.873901 
	C437.480927,113.877914 436.916718,113.881927 436.075623,113.218071 
	C431.772125,109.805176 423.636353,111.547882 422.086731,116.252907 
	C421.895142,116.834503 421.895203,117.670059 422.176514,118.186333 
	C424.400696,122.268669 431.225281,124.047096 436.562317,121.777596 
	C437.451630,121.802246 438.340973,121.826904 439.856354,122.165794 
M488.233215,113.523766 
	C494.779877,114.016083 491.141418,120.519760 494.640839,124.766197 
	C494.967102,121.566063 494.867706,119.688934 495.412628,118.022484 
	C495.926422,116.451157 497.118591,115.101639 498.012329,113.654541 
	C499.284729,115.076508 500.957489,116.316078 501.712769,117.973671 
	C502.415710,119.516434 502.141571,121.504379 502.297607,123.296349 
	C505.434937,117.105347 504.255920,111.819870 499.773682,111.108559 
	C495.565155,110.440666 491.121948,111.238029 486.783905,111.433212 
	C486.520538,111.445053 486.273987,111.831863 485.412781,111.814224 
	C484.336853,111.778084 483.260895,111.741951 482.184967,111.705811 
	C482.184967,115.584435 482.184967,119.463058 482.184967,123.341682 
	C482.656525,123.307610 483.128082,123.273537 483.599640,123.239464 
	C484.920837,119.951851 486.242004,116.664238 488.233215,113.523766 
M135.107910,61.089359 
	C149.730881,60.062916 158.185181,67.852058 158.275803,82.444511 
	C158.294418,85.441483 158.281479,88.438652 158.282288,91.435730 
	C158.284790,100.839165 158.658127,101.241142 168.098511,99.939339 
	C169.197037,99.787865 170.929703,98.065659 170.932434,97.067719 
	C170.970001,83.360397 173.185059,69.188538 162.778519,57.303238 
	C170.147644,51.450912 171.433594,43.775120 170.923431,35.453438 
	C170.781052,33.130928 170.943924,30.791428 170.885101,28.461782 
	C170.590714,16.803793 162.616455,8.782039 150.892929,8.583415 
	C141.737701,8.428304 132.577957,8.537742 123.420227,8.532536 
	C117.970840,8.529437 112.521454,8.531967 106.825409,8.531967 
	C106.825409,39.317257 106.825409,69.489807 106.825409,100.064102 
	C109.883522,100.064102 112.537651,99.918358 115.168694,100.102562 
	C118.170189,100.312698 119.373116,99.225739 119.247810,96.129738 
	C119.059441,91.475464 119.188766,86.807426 119.217384,82.145454 
	C119.284607,71.196945 123.922218,64.780724 135.107910,61.089359 
M342.937866,33.570549 
	C342.956268,49.390484 342.870239,65.211464 343.027954,81.029999 
	C343.142426,92.509697 351.128357,100.513931 362.554993,100.730705 
	C370.878204,100.888603 379.210114,100.904266 387.532318,100.720490 
	C398.619263,100.475647 406.718262,92.430725 406.834900,81.278610 
	C407.017761,63.795395 407.026031,46.307014 406.817932,28.824276 
	C406.688141,17.920271 398.584930,10.000147 387.747223,9.774880 
	C380.423096,9.622645 373.093445,9.694770 365.766510,9.725130 
	C349.902069,9.790868 343.008881,16.715244 342.937866,33.570549 
M216.499939,100.703751 
	C224.330078,100.701164 232.160385,100.730476 239.990295,100.687378 
	C248.495834,100.640564 247.427490,101.779175 247.826721,92.943352 
	C248.023560,88.586800 246.385986,87.671783 242.387695,87.752853 
	C230.730362,87.989235 219.062286,87.690514 207.404526,87.916374 
	C203.402115,87.993919 201.655151,87.019463 201.980728,82.686409 
	C202.341751,77.881859 202.196106,73.025536 202.041306,68.199120 
	C201.804993,60.830776 205.391953,55.715374 211.579071,52.489590 
	C217.578323,49.361752 223.416672,50.103828 228.872452,54.373669 
	C230.025711,55.276237 232.331604,55.829967 233.555054,55.291538 
	C236.347336,54.062698 238.798157,52.057926 241.570374,50.249168 
	C238.016373,44.383717 233.428345,40.847652 227.423676,39.095119 
	C217.096756,36.081074 209.713715,41.506088 202.079071,49.223740 
	C202.079071,40.646530 202.231842,33.538071 202.012894,26.441076 
	C201.907608,23.028673 203.294464,22.174568 206.413391,22.228151 
	C214.741058,22.371222 223.072769,22.280540 231.402863,22.281893 
	C236.685089,22.282749 241.967316,22.282051 247.742310,22.282051 
	C247.742310,18.978081 247.550690,16.326321 247.789001,13.713782 
	C248.113678,10.154537 246.652054,9.145972 243.207932,9.175779 
	C226.715530,9.318509 210.220001,9.350980 193.728546,9.162741 
	C189.855179,9.118528 189.003387,10.518738 189.021255,14.111403 
	C189.156204,41.266945 189.201294,68.424019 189.021362,95.578941 
	C188.992538,99.929848 190.544800,100.914528 194.510925,100.763786 
	C201.497955,100.498230 208.502640,100.697762 216.499939,100.703751 
M34.217484,92.364334 
	C34.352478,100.782906 33.123596,99.873772 42.112026,99.947357 
	C42.611290,99.951447 43.114899,99.896736 43.609299,99.944221 
	C46.203320,100.193352 47.148563,99.011864 47.100094,96.448715 
	C46.996273,90.958145 46.923050,85.457153 47.140018,79.972412 
	C47.581295,68.817238 55.652908,61.018143 66.751457,60.846207 
	C70.578659,60.786915 74.409523,60.936367 78.235901,60.856209 
	C89.588295,60.618385 97.609787,52.621998 97.914520,41.226711 
	C98.021263,37.234684 97.978683,33.237164 97.935448,29.242897 
	C97.799164,16.653257 89.843987,8.675372 77.246590,8.606983 
	C64.596802,8.538310 51.946335,8.576904 39.296238,8.603679 
	C37.720329,8.607015 36.144878,8.825670 34.217045,8.971127 
	C34.217045,36.837112 34.217045,64.118103 34.217484,92.364334 
M270.005890,35.500000 
	C270.005890,56.904491 270.005890,78.308983 270.005890,100.008789 
	C274.648743,100.008789 278.538147,100.008789 282.902191,100.008789 
	C282.902191,93.646065 282.824493,87.676010 282.918396,81.708641 
	C283.112579,69.368347 291.386047,61.225204 303.794067,61.096615 
	C307.620209,61.056961 311.448792,61.194279 315.273865,61.123241 
	C325.983154,60.924351 333.855408,53.451138 334.411713,42.717659 
	C334.678192,37.575047 334.683594,32.391956 334.380096,27.252424 
	C333.770538,16.928961 325.791748,9.247284 315.416992,9.114861 
	C301.609619,8.938623 287.797699,9.137724 273.989227,9.010995 
	C270.938721,8.982999 269.896210,10.003716 269.963348,13.037893 
	C270.121643,20.188734 270.008209,27.345587 270.005890,35.500000 
M491.282990,17.200150 
	C481.618378,9.032334 469.997894,9.671217 458.459412,9.882650 
	C440.720978,10.207693 425.734192,23.963129 424.602448,41.662437 
	C424.019135,50.784660 424.050171,60.001980 424.598785,69.128532 
	C425.580780,85.464554 438.611816,98.982132 454.905334,100.697296 
	C460.995819,101.338432 467.301239,101.511375 473.346252,100.695175 
	C487.516602,98.781914 496.843262,90.111603 503.685150,77.332939 
	C499.839783,75.094841 496.453857,73.124146 492.967346,71.094902 
	C490.913971,74.004524 489.219208,76.653481 487.280182,79.109596 
	C479.934296,88.414375 469.686432,88.645866 459.098083,88.216560 
	C446.972992,87.724930 437.531097,78.782455 437.158325,66.678047 
	C436.927612,59.186245 436.933838,51.675533 437.167419,44.183716 
	C437.536530,32.345856 446.785370,23.215912 458.677277,22.736706 
	C462.337616,22.589209 466.011383,22.614740 469.674316,22.721828 
	C479.711945,23.015284 486.596680,27.965160 490.573608,37.104679 
	C491.081940,38.272903 491.603241,39.435482 492.257019,40.913822 
	C495.203247,39.248142 497.725861,37.651325 500.396423,36.360699 
	C503.002869,35.101059 503.407562,33.236362 501.918488,31.131966 
	C498.677856,26.552248 495.209564,22.133652 491.282990,17.200150 
M252.792892,89.139404 
	C252.792892,92.880875 252.792892,96.622353 252.792892,100.413528 
	C257.187012,100.413528 260.942841,100.413528 264.926208,100.413528 
	C264.926208,96.187721 264.926208,92.290390 264.926208,87.809959 
	C260.793884,88.011887 257.018951,88.196342 252.792892,89.139404 
M480.305695,115.193970 
	C478.952148,111.577858 476.201202,109.528885 472.647278,110.949944 
	C470.660034,111.744545 468.678986,114.358749 468.122437,116.520493 
	C467.199890,120.104027 470.353241,123.771423 473.571808,123.949379 
	C476.791595,124.127411 480.053314,120.324646 480.305695,115.193970 
M462.714661,114.065247 
	C463.512787,113.699783 464.310883,113.334328 465.108978,112.968880 
	C464.566284,112.256447 463.751678,110.849518 463.522980,110.939056 
	C461.251984,111.828209 458.271332,112.415710 457.078094,114.168648 
	C455.546509,116.418564 454.771759,119.652306 458.199585,121.927025 
	C460.779205,123.638863 462.951904,123.928986 465.293610,122.332497 
	C462.938751,120.461250 461.037048,119.132797 459.488007,117.474846 
	C459.305969,117.279999 461.063751,115.272812 462.714661,114.065247 
z"/>
<path fill="#F7F7F7" opacity="1.000000" stroke="none" 
	d="
M134.697296,61.171745 
	C123.922218,64.780724 119.284607,71.196945 119.217384,82.145454 
	C119.188766,86.807426 119.059441,91.475464 119.247810,96.129738 
	C119.373116,99.225739 118.170189,100.312698 115.168694,100.102562 
	C112.537651,99.918358 109.883522,100.064102 106.825409,100.064102 
	C106.825409,69.489807 106.825409,39.317257 106.825409,8.531967 
	C112.521454,8.531967 117.970840,8.529437 123.420227,8.532536 
	C132.577957,8.537742 141.737701,8.428304 150.892929,8.583415 
	C162.616455,8.782039 170.590714,16.803793 170.885101,28.461782 
	C170.943924,30.791428 170.781052,33.130928 170.923431,35.453438 
	C171.433594,43.775120 170.147644,51.450912 162.778519,57.303238 
	C173.185059,69.188538 170.970001,83.360397 170.932434,97.067719 
	C170.929703,98.065659 169.197037,99.787865 168.098511,99.939339 
	C158.658127,101.241142 158.284790,100.839165 158.282288,91.435730 
	C158.281479,88.438652 158.294418,85.441483 158.275803,82.444511 
	C158.185181,67.852058 149.730881,60.062916 134.697296,61.171745 
M119.205414,54.115124 
	C119.205414,55.848225 119.205414,57.581326 119.205414,60.412254 
	C120.724655,58.994698 121.382523,58.539722 121.837036,57.932533 
	C127.174797,50.801716 134.505051,47.986149 143.163132,47.990227 
	C145.661652,47.991405 148.165039,48.046967 150.657700,47.915920 
	C155.597519,47.656216 157.918961,45.317059 158.070007,40.394253 
	C158.177231,36.899487 158.129868,33.398056 158.076935,29.900724 
	C157.986832,23.946888 155.845627,21.637775 150.010086,21.567608 
	C141.182785,21.461464 132.349503,21.687136 123.526512,21.464556 
	C119.813095,21.370876 119.090050,22.954834 119.149231,26.226353 
	C119.311897,35.218571 119.205383,44.215656 119.205414,54.115124 
z"/>
<path fill="#F7F7F7" opacity="1.000000" stroke="none" 
	d="
M342.938171,33.084461 
	C343.008881,16.715244 349.902069,9.790868 365.766510,9.725130 
	C373.093445,9.694770 380.423096,9.622645 387.747223,9.774880 
	C398.584930,10.000147 406.688141,17.920271 406.817932,28.824276 
	C407.026031,46.307014 407.017761,63.795395 406.834900,81.278610 
	C406.718262,92.430725 398.619263,100.475647 387.532318,100.720490 
	C379.210114,100.904266 370.878204,100.888603 362.554993,100.730705 
	C351.128357,100.513931 343.142426,92.509697 343.027954,81.029999 
	C342.870239,65.211464 342.956268,49.390484 342.938171,33.084461 
M369.597534,87.938454 
	C375.249756,87.925316 380.904938,88.019966 386.553345,87.866821 
	C391.572540,87.730728 394.006744,85.418602 394.031464,80.506393 
	C394.116821,63.550076 394.076569,46.592819 394.006927,29.636236 
	C393.988953,25.259027 391.555267,22.726896 387.220520,22.637415 
	C379.078308,22.469337 370.929230,22.508877 362.784973,22.613005 
	C358.429474,22.668690 355.862762,25.079355 355.841278,29.448252 
	C355.756989,46.570610 355.777496,63.693977 355.869019,80.816383 
	C355.893799,85.452072 358.598206,87.738380 363.147797,87.896904 
	C364.974579,87.960548 366.804810,87.926094 369.597534,87.938454 
z"/>
<path fill="#F6F6F6" opacity="1.000000" stroke="none" 
	d="
M215.999939,100.703156 
	C208.502640,100.697762 201.497955,100.498230 194.510925,100.763786 
	C190.544800,100.914528 188.992538,99.929848 189.021362,95.578941 
	C189.201294,68.424019 189.156204,41.266945 189.021255,14.111403 
	C189.003387,10.518738 189.855179,9.118528 193.728546,9.162741 
	C210.220001,9.350980 226.715530,9.318509 243.207932,9.175779 
	C246.652054,9.145972 248.113678,10.154537 247.789001,13.713782 
	C247.550690,16.326321 247.742310,18.978081 247.742310,22.282051 
	C241.967316,22.282051 236.685089,22.282749 231.402863,22.281893 
	C223.072769,22.280540 214.741058,22.371222 206.413391,22.228151 
	C203.294464,22.174568 201.907608,23.028673 202.012894,26.441076 
	C202.231842,33.538071 202.079071,40.646530 202.079071,49.223740 
	C209.713715,41.506088 217.096756,36.081074 227.423676,39.095119 
	C233.428345,40.847652 238.016373,44.383717 241.570374,50.249168 
	C238.798157,52.057926 236.347336,54.062698 233.555054,55.291538 
	C232.331604,55.829967 230.025711,55.276237 228.872452,54.373669 
	C223.416672,50.103828 217.578323,49.361752 211.579071,52.489590 
	C205.391953,55.715374 201.804993,60.830776 202.041306,68.199120 
	C202.196106,73.025536 202.341751,77.881859 201.980728,82.686409 
	C201.655151,87.019463 203.402115,87.993919 207.404526,87.916374 
	C219.062286,87.690514 230.730362,87.989235 242.387695,87.752853 
	C246.385986,87.671783 248.023560,88.586800 247.826721,92.943352 
	C247.427490,101.779175 248.495834,100.640564 239.990295,100.687378 
	C232.160385,100.730476 224.330078,100.701164 215.999939,100.703156 
z"/>
<path fill="#F7F7F7" opacity="1.000000" stroke="none" 
	d="
M34.217262,91.881714 
	C34.217045,64.118103 34.217045,36.837112 34.217045,8.971127 
	C36.144878,8.825670 37.720329,8.607015 39.296238,8.603679 
	C51.946335,8.576904 64.596802,8.538310 77.246590,8.606983 
	C89.843987,8.675372 97.799164,16.653257 97.935448,29.242897 
	C97.978683,33.237164 98.021263,37.234684 97.914520,41.226711 
	C97.609787,52.621998 89.588295,60.618385 78.235901,60.856209 
	C74.409523,60.936367 70.578659,60.786915 66.751457,60.846207 
	C55.652908,61.018143 47.581295,68.817238 47.140018,79.972412 
	C46.923050,85.457153 46.996273,90.958145 47.100094,96.448715 
	C47.148563,99.011864 46.203320,100.193352 43.609299,99.944221 
	C43.114899,99.896736 42.611290,99.951447 42.112026,99.947357 
	C33.123596,99.873772 34.352478,100.782906 34.217262,91.881714 
M55.309017,52.752060 
	C61.700001,47.856510 69.134727,47.810200 76.697617,47.914551 
	C82.836624,47.999256 85.127960,45.545944 85.227333,39.510803 
	C85.282013,36.190136 85.302963,32.866268 85.223221,29.546623 
	C85.090347,24.015127 82.844215,21.675386 77.300087,21.601299 
	C68.831543,21.488131 60.356380,21.715410 51.892399,21.487436 
	C48.244396,21.389177 46.927490,22.452635 47.016155,26.248154 
	C47.248806,36.207390 47.077042,46.175755 47.117512,56.140282 
	C47.121643,57.157551 47.471428,58.173416 47.743351,59.632961 
	C50.371773,57.198986 52.543911,55.187534 55.309017,52.752060 
z"/>
<path fill="#F8F8F8" opacity="1.000000" stroke="none" 
	d="
M270.005280,35.000004 
	C270.008209,27.345587 270.121643,20.188734 269.963348,13.037893 
	C269.896210,10.003716 270.938721,8.982999 273.989227,9.010995 
	C287.797699,9.137724 301.609619,8.938623 315.416992,9.114861 
	C325.791748,9.247284 333.770538,16.928961 334.380096,27.252424 
	C334.683594,32.391956 334.678192,37.575047 334.411713,42.717659 
	C333.855408,53.451138 325.983154,60.924351 315.273865,61.123241 
	C311.448792,61.194279 307.620209,61.056961 303.794067,61.096615 
	C291.386047,61.225204 283.112579,69.368347 282.918396,81.708641 
	C282.824493,87.676010 282.902191,93.646065 282.902191,100.008789 
	C278.538147,100.008789 274.648743,100.008789 270.005890,100.008789 
	C270.005890,78.308983 270.005890,56.904491 270.005280,35.000004 
M282.923279,41.499619 
	C282.923279,47.548512 282.923279,53.597401 282.923279,60.212822 
	C287.087982,56.895428 290.135284,52.970875 294.047119,51.693146 
	C300.360168,49.631077 307.214539,49.046844 313.893402,48.340721 
	C319.227203,47.776806 321.512695,46.056545 321.722992,40.773914 
	C321.874969,36.956371 321.885559,33.122131 321.719635,29.305754 
	C321.504913,24.366636 319.175568,22.033211 314.170349,21.961214 
	C305.028717,21.829720 295.882141,22.021885 286.741486,21.860348 
	C283.545654,21.803867 282.763885,23.172125 282.856445,26.038242 
	C283.012054,30.854595 282.915161,35.679104 282.923279,41.499619 
z"/>
<path fill="#F8F8F8" opacity="1.000000" stroke="none" 
	d="
M491.558655,17.424679 
	C495.209564,22.133652 498.677856,26.552248 501.918488,31.131966 
	C503.407562,33.236362 503.002869,35.101059 500.396423,36.360699 
	C497.725861,37.651325 495.203247,39.248142 492.257019,40.913822 
	C491.603241,39.435482 491.081940,38.272903 490.573608,37.104679 
	C486.596680,27.965160 479.711945,23.015284 469.674316,22.721828 
	C466.011383,22.614740 462.337616,22.589209 458.677277,22.736706 
	C446.785370,23.215912 437.536530,32.345856 437.167419,44.183716 
	C436.933838,51.675533 436.927612,59.186245 437.158325,66.678047 
	C437.531097,78.782455 446.972992,87.724930 459.098083,88.216560 
	C469.686432,88.645866 479.934296,88.414375 487.280182,79.109596 
	C489.219208,76.653481 490.913971,74.004524 492.967346,71.094902 
	C496.453857,73.124146 499.839783,75.094841 503.685150,77.332939 
	C496.843262,90.111603 487.516602,98.781914 473.346252,100.695175 
	C467.301239,101.511375 460.995819,101.338432 454.905334,100.697296 
	C438.611816,98.982132 425.580780,85.464554 424.598785,69.128532 
	C424.050171,60.001980 424.019135,50.784660 424.602448,41.662437 
	C425.734192,23.963129 440.720978,10.207693 458.459412,9.882650 
	C469.997894,9.671217 481.618378,9.032334 491.558655,17.424679 
z"/>
<path fill="#DADADA" opacity="1.000000" stroke="none" 
	d="
M329.644958,120.787003 
	C329.171539,121.251160 328.718384,122.094688 328.221558,122.121223 
	C322.804596,122.410530 317.370667,122.799774 311.968079,122.559868 
	C310.987244,122.516312 309.963898,119.828186 309.251953,118.230858 
	C308.338867,116.182236 307.721039,114.002014 306.901764,111.666992 
	C307.898315,109.768684 309.165558,107.354774 310.650696,104.525780 
	C311.934509,107.177986 313.092865,109.571014 314.070312,111.590302 
	C313.484344,113.873810 312.266144,116.243347 312.588501,118.380516 
	C312.746735,119.429543 315.762329,120.047562 317.752533,120.987007 
	C318.552124,110.816978 322.496735,108.309586 329.437439,113.295364 
	C328.193970,119.706520 323.621918,113.279449 321.061890,116.110588 
	C321.781616,119.432320 323.233795,121.426094 327.200592,120.174164 
	C327.882965,119.958809 328.823608,120.561951 329.644958,120.787003 
z"/>
<path fill="#F3F3F3" opacity="1.000000" stroke="none" 
	d="
M253.018448,88.760101 
	C257.018951,88.196342 260.793884,88.011887 264.926208,87.809959 
	C264.926208,92.290390 264.926208,96.187721 264.926208,100.413528 
	C260.942841,100.413528 257.187012,100.413528 252.792892,100.413528 
	C252.792892,96.622353 252.792892,92.880875 253.018448,88.760101 
z"/>
<path fill="#DFDFDF" opacity="1.000000" stroke="none" 
	d="
M404.852722,115.641129 
	C406.918457,108.275276 412.978973,111.815109 417.950409,110.882637 
	C417.950409,115.864632 418.616638,120.863853 417.644958,125.521355 
	C417.215118,127.581642 413.676178,129.765076 411.168518,130.406586 
	C408.575592,131.069901 405.726562,129.663269 404.953888,125.506516 
	C408.889435,126.203720 413.761078,130.900497 415.442657,122.790031 
	C410.904266,123.851669 406.953247,123.714142 404.866516,118.268845 
	C404.860474,116.860336 404.856598,116.250732 404.852722,115.641129 
M408.367889,115.201080 
	C409.028351,116.943352 409.388245,118.937607 410.518646,120.285889 
	C410.894501,120.734207 413.800690,119.937744 414.535522,118.953125 
	C415.220917,118.034798 414.900757,114.974846 414.429016,114.832954 
	C412.695709,114.311600 410.715240,114.611893 408.367889,115.201080 
z"/>
<path fill="#DFDFDF" opacity="1.000000" stroke="none" 
	d="
M363.068848,111.909866 
	C368.223877,109.577362 370.338867,110.660385 372.016754,115.731361 
	C374.543701,114.107002 377.084229,111.889923 380.037079,110.887314 
	C381.093842,110.528519 383.147034,113.104401 384.688751,114.848457 
	C384.138489,115.579056 383.644928,115.802025 382.996094,115.673981 
	C381.299042,114.597404 379.490173,113.021034 378.293945,113.396492 
	C377.197906,113.740494 376.189514,116.204758 376.223206,117.710594 
	C376.249115,118.866974 378.231598,121.068398 378.859985,120.908081 
	C380.430695,120.507370 381.725983,119.027206 383.447357,118.002846 
	C384.513306,118.364845 385.263672,118.704178 386.014069,119.043510 
	C379.475159,124.914139 377.871033,125.001114 373.275665,119.424843 
	C372.555695,120.806587 371.901886,122.061356 370.911255,123.962578 
	C368.378326,120.285049 371.502350,114.068192 364.629150,113.217567 
	C363.747803,112.627068 363.408325,112.268471 363.068848,111.909866 
z"/>
<path fill="#DADADA" opacity="1.000000" stroke="none" 
	d="
M362.727478,111.793991 
	C363.408325,112.268471 363.747803,112.627068 364.296753,113.121758 
	C363.620819,114.749626 362.417542,116.146980 361.938599,117.759483 
	C361.450378,119.403107 361.674530,121.258308 361.579742,123.162262 
	C359.155914,123.162262 357.224976,123.162262 355.099213,123.162262 
	C352.652496,120.428154 356.753998,114.178558 349.681580,113.232788 
	C348.774048,112.659019 348.420227,112.289200 348.066406,111.919388 
	C352.333771,108.672836 354.847534,111.875824 357.721191,115.013092 
	C357.953888,111.495827 358.793457,109.205574 362.727478,111.793991 
z"/>
<path fill="#DADADA" opacity="1.000000" stroke="none" 
	d="
M435.672333,121.775345 
	C431.225281,124.047096 424.400696,122.268669 422.176514,118.186333 
	C421.895203,117.670059 421.895142,116.834503 422.086731,116.252907 
	C423.636353,111.547882 431.772125,109.805176 436.176910,113.907211 
	C434.121429,115.139580 431.964661,115.682823 429.056702,116.415283 
	C427.951233,118.993599 428.830109,120.484566 432.395325,120.574501 
	C433.497040,120.602295 434.580505,121.354706 435.672333,121.775345 
z"/>
<path fill="#DFDFDF" opacity="1.000000" stroke="none" 
	d="
M486.019623,112.044205 
	C486.273987,111.831863 486.520538,111.445053 486.783905,111.433212 
	C491.121948,111.238029 495.565155,110.440666 499.773682,111.108559 
	C504.255920,111.819870 505.434937,117.105347 502.297607,123.296349 
	C502.141571,121.504379 502.415710,119.516434 501.712769,117.973671 
	C500.957489,116.316078 499.284729,115.076508 498.012329,113.654541 
	C497.118591,115.101639 495.926422,116.451157 495.412628,118.022484 
	C494.867706,119.688934 494.967102,121.566063 494.640839,124.766197 
	C491.141418,120.519760 494.779877,114.016083 487.627991,113.242500 
	C486.688354,112.655556 486.354004,112.349876 486.019623,112.044205 
z"/>
<path fill="#DFDFDF" opacity="1.000000" stroke="none" 
	d="
M438.609894,113.895668 
	C442.436462,109.214096 447.100525,109.236710 450.065491,114.363739 
	C447.779205,114.363739 445.718506,114.363739 442.235077,114.363739 
	C445.058197,115.659523 446.728973,116.243515 448.191559,117.159782 
	C449.226624,117.808212 450.877625,119.398605 450.702606,119.717690 
	C449.973297,121.047241 448.735321,122.893753 447.539032,123.005936 
	C445.026489,123.241554 442.422699,122.503899 439.522095,121.623535 
	C440.223572,120.779198 441.245483,120.301178 442.298431,120.218422 
	C443.694366,120.108719 445.114594,120.307823 447.387817,120.414886 
	C443.792908,117.744987 441.201385,115.820328 438.609894,113.895668 
z"/>
<path fill="#D2D2D2" opacity="1.000000" stroke="none" 
	d="
M480.382935,115.556152 
	C480.053314,120.324646 476.791595,124.127411 473.571808,123.949379 
	C470.353241,123.771423 467.199890,120.104027 468.122437,116.520493 
	C468.678986,114.358749 470.660034,111.744545 472.647278,110.949944 
	C476.201202,109.528885 478.952148,111.577858 480.382935,115.556152 
M473.525940,120.901131 
	C477.227203,120.906914 478.124573,118.517792 477.203613,115.681129 
	C476.826385,114.519249 474.273163,112.937714 473.361115,113.280396 
	C470.254700,114.447601 470.358704,117.125481 471.662201,119.780670 
	C471.858124,120.179802 472.382599,120.417656 473.525940,120.901131 
z"/>
<path fill="#797979" opacity="1.000000" stroke="none" 
	d="
M438.327515,113.884781 
	C441.201385,115.820328 443.792908,117.744987 447.387817,120.414886 
	C445.114594,120.307823 443.694366,120.108719 442.298431,120.218422 
	C441.245483,120.301178 440.223572,120.779198 439.209076,121.466423 
	C438.340973,121.826904 437.451630,121.802246 436.117310,121.776474 
	C434.580505,121.354706 433.497040,120.602295 432.395325,120.574501 
	C428.830109,120.484566 427.951233,118.993599 429.056702,116.415283 
	C431.964661,115.682823 434.121429,115.139580 436.315338,114.241142 
	C436.916718,113.881927 437.480927,113.877914 438.327515,113.884781 
z"/>
<path fill="#DFDFDF" opacity="1.000000" stroke="none" 
	d="
M462.318481,114.085510 
	C461.063751,115.272812 459.305969,117.279999 459.488007,117.474846 
	C461.037048,119.132797 462.938751,120.461250 465.293610,122.332497 
	C462.951904,123.928986 460.779205,123.638863 458.199585,121.927025 
	C454.771759,119.652306 455.546509,116.418564 457.078094,114.168648 
	C458.271332,112.415710 461.251984,111.828209 463.522980,110.939056 
	C463.751678,110.849518 464.566284,112.256447 465.109009,112.968872 
	C464.310883,113.334328 463.512787,113.699783 462.318481,114.085510 
z"/>
<path fill="#D2D2D2" opacity="1.000000" stroke="none" 
	d="
M332.143555,114.113022 
	C334.461060,110.699409 337.286896,109.308304 341.345642,112.369476 
	C340.757416,113.107803 339.828400,113.173103 339.118073,113.601234 
	C337.604431,114.513496 336.204285,115.614067 334.757629,116.637482 
	C335.926605,117.989014 336.989624,119.457672 338.304993,120.647346 
	C339.071655,121.340767 340.242279,121.587532 341.231171,122.035263 
	C337.751892,124.676758 334.915680,123.794662 332.301941,119.765747 
	C332.097504,117.427231 332.120544,115.770126 332.143555,114.113022 
z"/>
<path fill="#686868" opacity="1.000000" stroke="none" 
	d="
M341.535583,122.045395 
	C340.242279,121.587532 339.071655,121.340767 338.304993,120.647346 
	C336.989624,119.457672 335.926605,117.989014 334.757629,116.637482 
	C336.204285,115.614067 337.604431,114.513496 339.118073,113.601234 
	C339.828400,113.173103 340.757416,113.107803 341.639893,112.515846 
	C342.124603,112.099663 342.556732,112.045708 343.409546,112.426651 
	C343.775787,115.920807 343.721375,118.980072 343.666992,122.039345 
	C343.057983,122.044739 342.449005,122.050133 341.535583,122.045395 
z"/>
<path fill="#D2D2D2" opacity="1.000000" stroke="none" 
	d="
M343.833191,122.323486 
	C343.721375,118.980072 343.775787,115.920807 343.735870,112.411896 
	C343.894104,109.580437 344.146637,107.198624 344.399170,104.816803 
	C344.964081,104.806511 345.528992,104.796219 346.093872,104.785927 
	C346.511841,106.971725 346.929840,109.157524 347.707092,111.631348 
	C348.420227,112.289200 348.774048,112.659019 349.342896,113.174057 
	C348.661804,115.630455 347.616119,117.897781 346.921356,120.267952 
	C346.445923,121.889832 347.167816,124.518379 343.833191,122.323486 
z"/>
<path fill="#F3F3F3" opacity="1.000000" stroke="none" 
	d="
M383.151337,116.024979 
	C383.644928,115.802025 384.138489,115.579056 384.822723,115.159744 
	C385.984894,114.475769 387.794434,113.978035 387.788696,113.502174 
	C387.757202,110.889969 387.281128,108.283112 386.884460,105.083824 
	C387.366547,105.554298 388.650238,106.231682 388.897614,107.179543 
	C389.296509,108.707787 389.012482,110.414291 388.976685,112.900169 
	C389.230957,115.423889 389.525452,117.092949 389.819946,118.762009 
	C390.267456,118.750885 390.714996,118.739754 391.162506,118.728630 
	C391.931580,116.662903 392.700653,114.597176 394.029053,112.554955 
	C394.524780,114.887222 394.461182,117.195984 394.305389,119.952667 
	C394.130096,121.004166 394.047028,121.607742 393.963959,122.211327 
	C392.110992,120.484070 390.292114,119.276886 388.654449,122.517769 
	C388.048065,121.400940 387.400543,120.208359 386.383545,119.029640 
	C385.263672,118.704178 384.513306,118.364845 383.398254,117.677765 
	C383.072876,116.895004 383.112091,116.459991 383.151337,116.024979 
z"/>
<path fill="#DADADA" opacity="1.000000" stroke="none" 
	d="
M394.177429,122.549461 
	C394.047028,121.607742 394.130096,121.004166 394.604370,120.150162 
	C396.663391,119.725563 398.741791,120.078690 399.864441,119.204483 
	C400.708740,118.547028 400.991516,115.817703 400.315918,114.913429 
	C399.534729,113.867775 397.420441,113.836723 395.901489,113.316879 
	C394.934967,112.986092 393.998505,112.567513 393.048584,112.188309 
	C398.917389,109.466881 400.079681,109.836952 404.514099,115.686096 
	C404.856598,116.250732 404.860474,116.860336 404.855042,117.927086 
	C401.888336,121.110100 399.343567,124.793823 394.177429,122.549461 
z"/>
<path fill="#636363" opacity="1.000000" stroke="none" 
	d="
M393.018860,112.215714 
	C393.998505,112.567513 394.934967,112.986092 395.901489,113.316879 
	C397.420441,113.836723 399.534729,113.867775 400.315918,114.913429 
	C400.991516,115.817703 400.708740,118.547028 399.864441,119.204483 
	C398.741791,120.078690 396.663391,119.725563 394.696594,119.702240 
	C394.461182,117.195984 394.524780,114.887222 393.906799,112.510269 
	C393.225220,112.442078 392.967468,112.481346 392.967468,112.481346 
	C392.967468,112.481346 392.989105,112.243118 393.018860,112.215714 
z"/>
<path fill="#797979" opacity="1.000000" stroke="none" 
	d="
M331.834900,114.004562 
	C332.120544,115.770126 332.097504,117.427231 332.093506,119.499878 
	C331.502350,120.154594 330.892120,120.393761 329.963440,120.709961 
	C328.823608,120.561951 327.882965,119.958809 327.200592,120.174164 
	C323.233795,121.426094 321.781616,119.432320 321.061890,116.110588 
	C323.621918,113.279449 328.193970,119.706520 329.691589,113.505592 
	C330.312988,113.411919 330.919617,113.654007 331.834900,114.004562 
z"/>
<path fill="#D2D2D2" opacity="1.000000" stroke="none" 
	d="
M485.716187,111.929214 
	C486.354004,112.349876 486.688354,112.655556 487.292969,113.168930 
	C486.242004,116.664238 484.920837,119.951851 483.599640,123.239464 
	C483.128082,123.273537 482.656525,123.307610 482.184967,123.341682 
	C482.184967,119.463058 482.184967,115.584435 482.184967,111.705811 
	C483.260895,111.741951 484.336853,111.778084 485.716187,111.929214 
z"/>
<path fill="#D2D2D2" opacity="1.000000" stroke="none" 
	d="
M392.624512,112.705658 
	C392.967468,112.481346 393.225220,112.442078 393.347473,112.486763 
	C392.700653,114.597176 391.931580,116.662903 391.162506,118.728630 
	C390.714996,118.739754 390.267456,118.750885 389.819946,118.762009 
	C389.525452,117.092949 389.230957,115.423889 388.991455,113.336563 
	C390.124786,112.922195 391.203156,112.926086 392.624512,112.705658 
z"/>
<path fill="#595959" opacity="1.000000" stroke="none" 
	d="
M119.205399,53.662971 
	C119.205383,44.215656 119.311897,35.218571 119.149231,26.226353 
	C119.090050,22.954834 119.813095,21.370876 123.526512,21.464556 
	C132.349503,21.687136 141.182785,21.461464 150.010086,21.567608 
	C155.845627,21.637775 157.986832,23.946888 158.076935,29.900724 
	C158.129868,33.398056 158.177231,36.899487 158.070007,40.394253 
	C157.918961,45.317059 155.597519,47.656216 150.657700,47.915920 
	C148.165039,48.046967 145.661652,47.991405 143.163132,47.990227 
	C134.505051,47.986149 127.174797,50.801716 121.837036,57.932533 
	C121.382523,58.539722 120.724655,58.994698 119.205414,60.412254 
	C119.205414,57.581326 119.205414,55.848225 119.205399,53.662971 
z"/>
<path fill="#565656" opacity="1.000000" stroke="none" 
	d="
M369.115479,87.937378 
	C366.804810,87.926094 364.974579,87.960548 363.147797,87.896904 
	C358.598206,87.738380 355.893799,85.452072 355.869019,80.816383 
	C355.777496,63.693977 355.756989,46.570610 355.841278,29.448252 
	C355.862762,25.079355 358.429474,22.668690 362.784973,22.613005 
	C370.929230,22.508877 379.078308,22.469337 387.220520,22.637415 
	C391.555267,22.726896 393.988953,25.259027 394.006927,29.636236 
	C394.076569,46.592819 394.116821,63.550076 394.031464,80.506393 
	C394.006744,85.418602 391.572540,87.730728 386.553345,87.866821 
	C380.904938,88.019966 375.249756,87.925316 369.115479,87.937378 
z"/>
<path fill="#585858" opacity="1.000000" stroke="none" 
	d="
M55.012535,52.964073 
	C52.543911,55.187534 50.371773,57.198986 47.743351,59.632961 
	C47.471428,58.173416 47.121643,57.157551 47.117512,56.140282 
	C47.077042,46.175755 47.248806,36.207390 47.016155,26.248154 
	C46.927490,22.452635 48.244396,21.389177 51.892399,21.487436 
	C60.356380,21.715410 68.831543,21.488131 77.300087,21.601299 
	C82.844215,21.675386 85.090347,24.015127 85.223221,29.546623 
	C85.302963,32.866268 85.282013,36.190136 85.227333,39.510803 
	C85.127960,45.545944 82.836624,47.999256 76.697617,47.914551 
	C69.134727,47.810200 61.700001,47.856510 55.012535,52.964073 
z"/>
<path fill="#595959" opacity="1.000000" stroke="none" 
	d="
M282.923889,40.999901 
	C282.915161,35.679104 283.012054,30.854595 282.856445,26.038242 
	C282.763885,23.172125 283.545654,21.803867 286.741486,21.860348 
	C295.882141,22.021885 305.028717,21.829720 314.170349,21.961214 
	C319.175568,22.033211 321.504913,24.366636 321.719635,29.305754 
	C321.885559,33.122131 321.874969,36.956371 321.722992,40.773914 
	C321.512695,46.056545 319.227203,47.776806 313.893402,48.340721 
	C307.214539,49.046844 300.360168,49.631077 294.047119,51.693146 
	C290.135284,52.970875 287.087982,56.895428 282.923279,60.212822 
	C282.923279,53.597401 282.923279,47.548512 282.923889,40.999901 
z"/>
<path fill="#686868" opacity="1.000000" stroke="none" 
	d="
M408.597839,114.902039 
	C410.715240,114.611893 412.695709,114.311600 414.429016,114.832954 
	C414.900757,114.974846 415.220917,118.034798 414.535522,118.953125 
	C413.800690,119.937744 410.894501,120.734207 410.518646,120.285889 
	C409.388245,118.937607 409.028351,116.943352 408.597839,114.902039 
z"/>
<path fill="#636363" opacity="1.000000" stroke="none" 
	d="
M382.996094,115.673981 
	C383.112091,116.459991 383.072876,116.895004 383.082703,117.655106 
	C381.725983,119.027206 380.430695,120.507370 378.859985,120.908081 
	C378.231598,121.068398 376.249115,118.866974 376.223206,117.710594 
	C376.189514,116.204758 377.197906,113.740494 378.293945,113.396492 
	C379.490173,113.021034 381.299042,114.597404 382.996094,115.673981 
z"/>
<path fill="#636363" opacity="1.000000" stroke="none" 
	d="
M473.140503,120.815628 
	C472.382599,120.417656 471.858124,120.179802 471.662201,119.780670 
	C470.358704,117.125481 470.254700,114.447601 473.361115,113.280396 
	C474.273163,112.937714 476.826385,114.519249 477.203613,115.681129 
	C478.124573,118.517792 477.227203,120.906914 473.140503,120.815628 
z"/>
</svg>